<svg width="139" height="156" viewBox="0 0 139 156" fill="none" xmlns="http://www.w3.org/2000/svg">
<mask id="mask0_4_1767" style="mask-type:luminance" maskUnits="userSpaceOnUse" x="0" y="0" width="139" height="156">
<path d="M94.9242 96.9841C89.9389 101.445 83.2162 104.001 75.8922 103.511C63.0735 102.649 52.6855 92.2494 51.8429 79.4267C50.8509 64.3347 62.7989 51.7854 77.6775 51.7854C84.2149 51.7854 90.1815 54.2081 94.7362 58.2027C101.678 64.2947 111.2 66.5041 119.962 63.5841L120.967 63.2494C139.412 57.0987 144.386 33.3987 130.026 20.2907C116.199 7.66939 97.7935 -0.0212569 77.5922 7.63985e-05C36.0869 0.0454097 1.63485 33.1747 0.0575195 74.6494C-1.62381 118.928 33.7722 155.354 77.6775 155.354C97.7975 155.354 116.128 147.705 129.924 135.156C144.355 122.032 139.106 98.1534 120.599 91.9841C111.756 89.0361 101.872 90.7694 94.9242 96.9841Z" fill="white"/>
</mask>
<g mask="url(#mask0_4_1767)">
<path d="M94.9242 96.9841C89.9389 101.445 83.2162 104.001 75.8922 103.511C63.0735 102.649 52.6855 92.2494 51.8429 79.4267C50.8509 64.3347 62.7989 51.7854 77.6775 51.7854C84.2149 51.7854 90.1815 54.2081 94.7362 58.2027C101.678 64.2947 111.2 66.5041 119.962 63.5841L120.967 63.2494C139.412 57.0987 144.386 33.3987 130.026 20.2907C116.199 7.66939 97.7935 -0.0212569 77.5922 7.63985e-05C36.0869 0.0454097 1.63485 33.1747 0.0575195 74.6494C-1.62381 118.928 33.7722 155.354 77.6775 155.354C97.7975 155.354 116.128 147.705 129.924 135.156C144.355 122.032 139.106 98.1534 120.599 91.9841C111.756 89.0361 101.872 90.7694 94.9242 96.9841Z" fill="url(#paint0_linear_4_1767)"/>
</g>
<mask id="mask1_4_1767" style="mask-type:luminance" maskUnits="userSpaceOnUse" x="7" y="0" width="132" height="65">
<path d="M94.7362 58.2027C101.678 64.2947 111.2 66.504 119.962 63.584L120.967 63.2494C139.412 57.0987 144.386 33.3987 130.026 20.2907C116.199 7.66937 97.7935 -0.0212827 77.5922 5.06596e-05C47.2322 0.033384 20.6642 17.7787 7.95886 43.532C27.8655 23.6587 69.1935 24.8041 94.7362 58.2027Z" fill="white"/>
</mask>
<g mask="url(#mask1_4_1767)">
<path d="M94.7362 58.2027C101.678 64.2947 111.2 66.504 119.962 63.584L120.967 63.2494C139.412 57.0987 144.386 33.3987 130.026 20.2907C116.199 7.66937 97.7935 -0.0212827 77.5922 5.06596e-05C47.2322 0.033384 20.6642 17.7787 7.95886 43.532C27.8655 23.6587 69.1935 24.8041 94.7362 58.2027Z" fill="url(#paint1_linear_4_1767)"/>
</g>
<path d="M94.7362 97.152C101.678 91.0614 111.2 88.852 119.962 91.772L120.967 92.1067C139.412 98.256 144.386 121.956 130.026 135.064C116.199 147.687 97.7935 155.376 77.5922 155.354C47.2322 155.322 20.6642 137.577 7.95886 111.823C27.8655 131.697 69.1935 130.552 94.7362 97.152Z" fill="url(#paint2_linear_4_1767)"/>
<defs>
<linearGradient id="paint0_linear_4_1767" x1="69.1775" y1="155.355" x2="69.1775" y2="7.49476e-05" gradientUnits="userSpaceOnUse">
<stop stop-color="#A3AFFF"/>
<stop offset="0.672888" stop-color="#0033D9"/>
<stop offset="1" stop-color="#00014F"/>
</linearGradient>
<linearGradient id="paint1_linear_4_1767" x1="7.95886" y1="32.4307" x2="138.354" y2="32.4307" gradientUnits="userSpaceOnUse">
<stop stop-color="#1125FF"/>
<stop offset="0.672888" stop-color="#3858FC"/>
<stop offset="1" stop-color="#261FFF"/>
</linearGradient>
<linearGradient id="paint2_linear_4_1767" x1="40.6402" y1="79.1414" x2="113.314" y2="151.815" gradientUnits="userSpaceOnUse">
<stop stop-color="#4049FF"/>
<stop offset="0.327112" stop-color="#213D99"/>
<stop offset="1" stop-color="#1D30FF"/>
</linearGradient>
</defs>
</svg>
